<mxfile host="app.diagrams.net" modified="2024-07-18T07:02:53.548Z" agent="Mozilla/5.0 (Windows NT 10.0; Win64; x64) AppleWebKit/537.36 (KHTML, like Gecko) Chrome/126.0.0.0 Safari/537.36" etag="QBSrcWpg19gO033Iu9aI" version="24.7.1" type="github">
  <diagram name="第 1 页" id="ZXi959offg9TOEU08AZm">
    <mxGraphModel dx="2074" dy="-3403" grid="1" gridSize="10" guides="1" tooltips="1" connect="1" arrows="1" fold="1" page="1" pageScale="1" pageWidth="291" pageHeight="413" math="0" shadow="0">
      <root>
        <mxCell id="0" />
        <mxCell id="1" parent="0" />
        <mxCell id="SkI0lWn-ay7iLgk8auJr-1006" value="" style="whiteSpace=wrap;html=1;" parent="1" vertex="1">
          <mxGeometry x="200" y="4570" width="1470" height="630" as="geometry" />
        </mxCell>
        <mxCell id="SkI0lWn-ay7iLgk8auJr-994" value="" style="whiteSpace=wrap;html=1;fillColor=#d5e8d4;strokeColor=#82b366;" parent="1" vertex="1">
          <mxGeometry x="1048" y="4800" width="580" height="360" as="geometry" />
        </mxCell>
        <mxCell id="SkI0lWn-ay7iLgk8auJr-993" value="" style="whiteSpace=wrap;html=1;fillColor=#d5e8d4;strokeColor=#82b366;" parent="1" vertex="1">
          <mxGeometry x="290" y="4800" width="580" height="360" as="geometry" />
        </mxCell>
        <mxCell id="SkI0lWn-ay7iLgk8auJr-1" value="" style="shape=mxgraph.cisco.switches.atm_switch;sketch=0;html=1;pointerEvents=1;dashed=0;fillColor=#036897;strokeColor=#ffffff;strokeWidth=2;verticalLabelPosition=bottom;verticalAlign=top;align=center;outlineConnect=0;" parent="1" vertex="1">
          <mxGeometry x="355" y="4840" width="40" height="36" as="geometry" />
        </mxCell>
        <mxCell id="SkI0lWn-ay7iLgk8auJr-2" value="" style="shape=mxgraph.rack.ibm.ibm_x3630_m3;html=1;labelPosition=right;align=left;spacingLeft=15;dashed=0;shadow=0;fillColor=#ffffff;" parent="1" vertex="1">
          <mxGeometry x="355" y="5050" width="80" height="30" as="geometry" />
        </mxCell>
        <mxCell id="SkI0lWn-ay7iLgk8auJr-3" style="rounded=0;orthogonalLoop=1;jettySize=auto;html=1;exitX=0.25;exitY=0;exitDx=0;exitDy=0;startArrow=none;startFill=0;strokeWidth=1;endArrow=none;endFill=0;strokeColor=#FF8000;" parent="1" source="SkI0lWn-ay7iLgk8auJr-4" target="SkI0lWn-ay7iLgk8auJr-1" edge="1">
          <mxGeometry relative="1" as="geometry" />
        </mxCell>
        <mxCell id="SkI0lWn-ay7iLgk8auJr-4" value="" style="rounded=0;whiteSpace=wrap;html=1;fillColor=#008a00;strokeColor=#005700;fontColor=#ffffff;" parent="1" vertex="1">
          <mxGeometry x="355" y="5030" width="10" height="20" as="geometry" />
        </mxCell>
        <mxCell id="SkI0lWn-ay7iLgk8auJr-5" value="" style="rounded=0;whiteSpace=wrap;html=1;fillColor=#ffcd28;strokeColor=#d79b00;gradientColor=#ffa500;" parent="1" vertex="1">
          <mxGeometry x="395" y="5030" width="10" height="20" as="geometry" />
        </mxCell>
        <mxCell id="SkI0lWn-ay7iLgk8auJr-6" value="" style="rounded=0;whiteSpace=wrap;html=1;fillColor=#6a00ff;strokeColor=#3700CC;fontColor=#ffffff;" parent="1" vertex="1">
          <mxGeometry x="375" y="5030" width="10" height="20" as="geometry" />
        </mxCell>
        <mxCell id="SkI0lWn-ay7iLgk8auJr-7" value="" style="rounded=0;whiteSpace=wrap;html=1;fillColor=#1ba1e2;strokeColor=#006EAF;fontColor=#ffffff;" parent="1" vertex="1">
          <mxGeometry x="365" y="5030" width="10" height="20" as="geometry" />
        </mxCell>
        <mxCell id="SkI0lWn-ay7iLgk8auJr-8" value="" style="rounded=0;whiteSpace=wrap;html=1;fillColor=#0000FF;strokeColor=#7F00FF;" parent="1" vertex="1">
          <mxGeometry x="405" y="5030" width="10" height="20" as="geometry" />
        </mxCell>
        <mxCell id="SkI0lWn-ay7iLgk8auJr-9" value="" style="rounded=0;whiteSpace=wrap;html=1;fillColor=#a20025;strokeColor=#6F0000;fontColor=#ffffff;" parent="1" vertex="1">
          <mxGeometry x="385" y="5030" width="10" height="20" as="geometry" />
        </mxCell>
        <mxCell id="SkI0lWn-ay7iLgk8auJr-10" value="" style="rounded=0;whiteSpace=wrap;html=1;fillColor=#e3c800;strokeColor=#B09500;fontColor=#000000;" parent="1" vertex="1">
          <mxGeometry x="415" y="5030" width="10" height="20" as="geometry" />
        </mxCell>
        <mxCell id="SkI0lWn-ay7iLgk8auJr-11" value="" style="rounded=0;whiteSpace=wrap;html=1;fillColor=#0050ef;strokeColor=#001DBC;fontColor=#ffffff;" parent="1" vertex="1">
          <mxGeometry x="425" y="5030" width="10" height="20" as="geometry" />
        </mxCell>
        <mxCell id="SkI0lWn-ay7iLgk8auJr-12" value="" style="shape=mxgraph.rack.ibm.ibm_x3630_m3;html=1;labelPosition=right;align=left;spacingLeft=15;dashed=0;shadow=0;fillColor=#ffffff;" parent="1" vertex="1">
          <mxGeometry x="735" y="5050" width="80" height="30" as="geometry" />
        </mxCell>
        <mxCell id="SkI0lWn-ay7iLgk8auJr-13" value="" style="rounded=0;whiteSpace=wrap;html=1;fillColor=#008a00;strokeColor=#005700;fontColor=#ffffff;" parent="1" vertex="1">
          <mxGeometry x="735" y="5030" width="10" height="20" as="geometry" />
        </mxCell>
        <mxCell id="SkI0lWn-ay7iLgk8auJr-14" value="" style="rounded=0;whiteSpace=wrap;html=1;fillColor=#ffcd28;strokeColor=#d79b00;gradientColor=#ffa500;" parent="1" vertex="1">
          <mxGeometry x="775" y="5030" width="10" height="20" as="geometry" />
        </mxCell>
        <mxCell id="SkI0lWn-ay7iLgk8auJr-15" value="" style="rounded=0;whiteSpace=wrap;html=1;fillColor=#6a00ff;strokeColor=#3700CC;fontColor=#ffffff;" parent="1" vertex="1">
          <mxGeometry x="755" y="5030" width="10" height="20" as="geometry" />
        </mxCell>
        <mxCell id="SkI0lWn-ay7iLgk8auJr-16" value="" style="rounded=0;whiteSpace=wrap;html=1;fillColor=#1ba1e2;strokeColor=#006EAF;fontColor=#ffffff;" parent="1" vertex="1">
          <mxGeometry x="745" y="5030" width="10" height="20" as="geometry" />
        </mxCell>
        <mxCell id="SkI0lWn-ay7iLgk8auJr-17" value="" style="rounded=0;whiteSpace=wrap;html=1;fillColor=#0000FF;strokeColor=#7F00FF;" parent="1" vertex="1">
          <mxGeometry x="785" y="5030" width="10" height="20" as="geometry" />
        </mxCell>
        <mxCell id="SkI0lWn-ay7iLgk8auJr-18" value="" style="rounded=0;whiteSpace=wrap;html=1;fillColor=#a20025;strokeColor=#6F0000;fontColor=#ffffff;" parent="1" vertex="1">
          <mxGeometry x="765" y="5030" width="10" height="20" as="geometry" />
        </mxCell>
        <mxCell id="SkI0lWn-ay7iLgk8auJr-19" value="" style="rounded=0;whiteSpace=wrap;html=1;fillColor=#e3c800;strokeColor=#B09500;fontColor=#000000;" parent="1" vertex="1">
          <mxGeometry x="795" y="5030" width="10" height="20" as="geometry" />
        </mxCell>
        <mxCell id="SkI0lWn-ay7iLgk8auJr-20" value="" style="rounded=0;whiteSpace=wrap;html=1;fillColor=#0050ef;strokeColor=#001DBC;fontColor=#ffffff;" parent="1" vertex="1">
          <mxGeometry x="805" y="5030" width="10" height="20" as="geometry" />
        </mxCell>
        <mxCell id="SkI0lWn-ay7iLgk8auJr-21" value="" style="shape=mxgraph.cisco.switches.atm_switch;sketch=0;html=1;pointerEvents=1;dashed=0;fillColor=#036897;strokeColor=#ffffff;strokeWidth=2;verticalLabelPosition=bottom;verticalAlign=top;align=center;outlineConnect=0;" parent="1" vertex="1">
          <mxGeometry x="415" y="4840" width="40" height="36" as="geometry" />
        </mxCell>
        <mxCell id="SkI0lWn-ay7iLgk8auJr-22" value="" style="shape=mxgraph.cisco.switches.atm_switch;sketch=0;html=1;pointerEvents=1;dashed=0;fillColor=#036897;strokeColor=#ffffff;strokeWidth=2;verticalLabelPosition=bottom;verticalAlign=top;align=center;outlineConnect=0;" parent="1" vertex="1">
          <mxGeometry x="475" y="4840" width="40" height="36" as="geometry" />
        </mxCell>
        <mxCell id="SkI0lWn-ay7iLgk8auJr-23" value="" style="shape=mxgraph.cisco.switches.atm_switch;sketch=0;html=1;pointerEvents=1;dashed=0;fillColor=#036897;strokeColor=#ffffff;strokeWidth=2;verticalLabelPosition=bottom;verticalAlign=top;align=center;outlineConnect=0;" parent="1" vertex="1">
          <mxGeometry x="535" y="4840" width="40" height="36" as="geometry" />
        </mxCell>
        <mxCell id="SkI0lWn-ay7iLgk8auJr-24" value="" style="shape=mxgraph.cisco.switches.atm_switch;sketch=0;html=1;pointerEvents=1;dashed=0;fillColor=#036897;strokeColor=#ffffff;strokeWidth=2;verticalLabelPosition=bottom;verticalAlign=top;align=center;outlineConnect=0;" parent="1" vertex="1">
          <mxGeometry x="595" y="4840" width="40" height="36" as="geometry" />
        </mxCell>
        <mxCell id="SkI0lWn-ay7iLgk8auJr-25" value="" style="shape=mxgraph.cisco.switches.atm_switch;sketch=0;html=1;pointerEvents=1;dashed=0;fillColor=#036897;strokeColor=#ffffff;strokeWidth=2;verticalLabelPosition=bottom;verticalAlign=top;align=center;outlineConnect=0;" parent="1" vertex="1">
          <mxGeometry x="655" y="4840" width="40" height="36" as="geometry" />
        </mxCell>
        <mxCell id="SkI0lWn-ay7iLgk8auJr-26" value="" style="shape=mxgraph.cisco.switches.atm_switch;sketch=0;html=1;pointerEvents=1;dashed=0;fillColor=#036897;strokeColor=#ffffff;strokeWidth=2;verticalLabelPosition=bottom;verticalAlign=top;align=center;outlineConnect=0;" parent="1" vertex="1">
          <mxGeometry x="715" y="4840" width="40" height="36" as="geometry" />
        </mxCell>
        <mxCell id="SkI0lWn-ay7iLgk8auJr-27" value="" style="shape=mxgraph.cisco.switches.atm_switch;sketch=0;html=1;pointerEvents=1;dashed=0;fillColor=#036897;strokeColor=#ffffff;strokeWidth=2;verticalLabelPosition=bottom;verticalAlign=top;align=center;outlineConnect=0;" parent="1" vertex="1">
          <mxGeometry x="775" y="4840" width="40" height="36" as="geometry" />
        </mxCell>
        <mxCell id="SkI0lWn-ay7iLgk8auJr-28" style="rounded=0;orthogonalLoop=1;jettySize=auto;html=1;startArrow=none;startFill=0;strokeWidth=1;endArrow=none;endFill=0;strokeColor=#FF8000;entryX=0.5;entryY=1;entryDx=0;entryDy=0;entryPerimeter=0;exitX=0.25;exitY=0;exitDx=0;exitDy=0;" parent="1" source="SkI0lWn-ay7iLgk8auJr-7" target="SkI0lWn-ay7iLgk8auJr-21" edge="1">
          <mxGeometry relative="1" as="geometry">
            <mxPoint x="375" y="5030" as="sourcePoint" />
            <mxPoint x="383" y="4886" as="targetPoint" />
          </mxGeometry>
        </mxCell>
        <mxCell id="SkI0lWn-ay7iLgk8auJr-29" style="rounded=0;orthogonalLoop=1;jettySize=auto;html=1;startArrow=none;startFill=0;strokeWidth=1;endArrow=none;endFill=0;strokeColor=#FF8000;entryX=0.5;entryY=1;entryDx=0;entryDy=0;entryPerimeter=0;exitX=0.5;exitY=0;exitDx=0;exitDy=0;" parent="1" source="SkI0lWn-ay7iLgk8auJr-6" target="SkI0lWn-ay7iLgk8auJr-22" edge="1">
          <mxGeometry relative="1" as="geometry">
            <mxPoint x="378" y="5040" as="sourcePoint" />
            <mxPoint x="445" y="4886" as="targetPoint" />
          </mxGeometry>
        </mxCell>
        <mxCell id="SkI0lWn-ay7iLgk8auJr-30" style="rounded=0;orthogonalLoop=1;jettySize=auto;html=1;startArrow=none;startFill=0;strokeWidth=1;endArrow=none;endFill=0;strokeColor=#FF8000;entryX=0.5;entryY=1;entryDx=0;entryDy=0;entryPerimeter=0;exitX=0.5;exitY=0;exitDx=0;exitDy=0;" parent="1" source="SkI0lWn-ay7iLgk8auJr-9" target="SkI0lWn-ay7iLgk8auJr-23" edge="1">
          <mxGeometry relative="1" as="geometry">
            <mxPoint x="388" y="5050" as="sourcePoint" />
            <mxPoint x="455" y="4896" as="targetPoint" />
          </mxGeometry>
        </mxCell>
        <mxCell id="SkI0lWn-ay7iLgk8auJr-31" style="rounded=0;orthogonalLoop=1;jettySize=auto;html=1;startArrow=none;startFill=0;strokeWidth=1;endArrow=none;endFill=0;strokeColor=#FF8000;entryX=0.5;entryY=1;entryDx=0;entryDy=0;entryPerimeter=0;exitX=0.5;exitY=0;exitDx=0;exitDy=0;" parent="1" source="SkI0lWn-ay7iLgk8auJr-5" target="SkI0lWn-ay7iLgk8auJr-24" edge="1">
          <mxGeometry relative="1" as="geometry">
            <mxPoint x="398" y="5060" as="sourcePoint" />
            <mxPoint x="465" y="4906" as="targetPoint" />
          </mxGeometry>
        </mxCell>
        <mxCell id="SkI0lWn-ay7iLgk8auJr-32" style="rounded=0;orthogonalLoop=1;jettySize=auto;html=1;startArrow=none;startFill=0;strokeWidth=1;endArrow=none;endFill=0;strokeColor=#FF8000;entryX=0.5;entryY=1;entryDx=0;entryDy=0;entryPerimeter=0;exitX=0.5;exitY=0;exitDx=0;exitDy=0;" parent="1" source="SkI0lWn-ay7iLgk8auJr-8" target="SkI0lWn-ay7iLgk8auJr-25" edge="1">
          <mxGeometry relative="1" as="geometry">
            <mxPoint x="408" y="5070" as="sourcePoint" />
            <mxPoint x="475" y="4916" as="targetPoint" />
          </mxGeometry>
        </mxCell>
        <mxCell id="SkI0lWn-ay7iLgk8auJr-33" style="rounded=0;orthogonalLoop=1;jettySize=auto;html=1;startArrow=none;startFill=0;strokeWidth=1;endArrow=none;endFill=0;strokeColor=#FF8000;entryX=0.5;entryY=1;entryDx=0;entryDy=0;entryPerimeter=0;exitX=0.5;exitY=0;exitDx=0;exitDy=0;" parent="1" source="SkI0lWn-ay7iLgk8auJr-10" target="SkI0lWn-ay7iLgk8auJr-26" edge="1">
          <mxGeometry relative="1" as="geometry">
            <mxPoint x="418" y="5080" as="sourcePoint" />
            <mxPoint x="485" y="4926" as="targetPoint" />
          </mxGeometry>
        </mxCell>
        <mxCell id="SkI0lWn-ay7iLgk8auJr-34" style="rounded=0;orthogonalLoop=1;jettySize=auto;html=1;startArrow=none;startFill=0;strokeWidth=1;endArrow=none;endFill=0;strokeColor=#FF8000;entryX=0.5;entryY=1;entryDx=0;entryDy=0;entryPerimeter=0;exitX=0.5;exitY=0;exitDx=0;exitDy=0;" parent="1" source="SkI0lWn-ay7iLgk8auJr-11" target="SkI0lWn-ay7iLgk8auJr-27" edge="1">
          <mxGeometry relative="1" as="geometry">
            <mxPoint x="428" y="5090" as="sourcePoint" />
            <mxPoint x="495" y="4936" as="targetPoint" />
          </mxGeometry>
        </mxCell>
        <mxCell id="SkI0lWn-ay7iLgk8auJr-35" style="rounded=0;orthogonalLoop=1;jettySize=auto;html=1;startArrow=none;startFill=0;strokeWidth=1;endArrow=none;endFill=0;strokeColor=#FF8000;entryX=0.5;entryY=1;entryDx=0;entryDy=0;entryPerimeter=0;exitX=0.75;exitY=0;exitDx=0;exitDy=0;" parent="1" source="SkI0lWn-ay7iLgk8auJr-20" target="SkI0lWn-ay7iLgk8auJr-27" edge="1">
          <mxGeometry relative="1" as="geometry">
            <mxPoint x="438" y="5100" as="sourcePoint" />
            <mxPoint x="505" y="4946" as="targetPoint" />
          </mxGeometry>
        </mxCell>
        <mxCell id="SkI0lWn-ay7iLgk8auJr-36" style="rounded=0;orthogonalLoop=1;jettySize=auto;html=1;startArrow=none;startFill=0;strokeWidth=1;endArrow=none;endFill=0;strokeColor=#FF8000;entryX=0.5;entryY=1;entryDx=0;entryDy=0;entryPerimeter=0;exitX=-0.443;exitY=0.01;exitDx=0;exitDy=0;exitPerimeter=0;" parent="1" source="SkI0lWn-ay7iLgk8auJr-20" target="SkI0lWn-ay7iLgk8auJr-26" edge="1">
          <mxGeometry relative="1" as="geometry">
            <mxPoint x="823" y="5040" as="sourcePoint" />
            <mxPoint x="805" y="4886" as="targetPoint" />
          </mxGeometry>
        </mxCell>
        <mxCell id="SkI0lWn-ay7iLgk8auJr-37" style="rounded=0;orthogonalLoop=1;jettySize=auto;html=1;startArrow=none;startFill=0;strokeWidth=1;endArrow=none;endFill=0;strokeColor=#FF8000;entryX=0.5;entryY=1;entryDx=0;entryDy=0;entryPerimeter=0;exitX=0.5;exitY=0;exitDx=0;exitDy=0;" parent="1" source="SkI0lWn-ay7iLgk8auJr-17" target="SkI0lWn-ay7iLgk8auJr-25" edge="1">
          <mxGeometry relative="1" as="geometry">
            <mxPoint x="833" y="5050" as="sourcePoint" />
            <mxPoint x="815" y="4896" as="targetPoint" />
          </mxGeometry>
        </mxCell>
        <mxCell id="SkI0lWn-ay7iLgk8auJr-38" style="rounded=0;orthogonalLoop=1;jettySize=auto;html=1;startArrow=none;startFill=0;strokeWidth=1;endArrow=none;endFill=0;strokeColor=#FF8000;entryX=0.5;entryY=1;entryDx=0;entryDy=0;entryPerimeter=0;" parent="1" target="SkI0lWn-ay7iLgk8auJr-24" edge="1">
          <mxGeometry relative="1" as="geometry">
            <mxPoint x="780" y="5030" as="sourcePoint" />
            <mxPoint x="825" y="4906" as="targetPoint" />
          </mxGeometry>
        </mxCell>
        <mxCell id="SkI0lWn-ay7iLgk8auJr-39" style="rounded=0;orthogonalLoop=1;jettySize=auto;html=1;startArrow=none;startFill=0;strokeWidth=1;endArrow=none;endFill=0;strokeColor=#FF8000;entryX=0.5;entryY=1;entryDx=0;entryDy=0;entryPerimeter=0;exitX=0.5;exitY=0;exitDx=0;exitDy=0;" parent="1" source="SkI0lWn-ay7iLgk8auJr-18" target="SkI0lWn-ay7iLgk8auJr-23" edge="1">
          <mxGeometry relative="1" as="geometry">
            <mxPoint x="853" y="5070" as="sourcePoint" />
            <mxPoint x="835" y="4916" as="targetPoint" />
          </mxGeometry>
        </mxCell>
        <mxCell id="SkI0lWn-ay7iLgk8auJr-40" style="rounded=0;orthogonalLoop=1;jettySize=auto;html=1;startArrow=none;startFill=0;strokeWidth=1;endArrow=none;endFill=0;strokeColor=#FF8000;entryX=0.5;entryY=1;entryDx=0;entryDy=0;entryPerimeter=0;exitX=0.5;exitY=0;exitDx=0;exitDy=0;" parent="1" source="SkI0lWn-ay7iLgk8auJr-15" target="SkI0lWn-ay7iLgk8auJr-22" edge="1">
          <mxGeometry relative="1" as="geometry">
            <mxPoint x="863" y="5080" as="sourcePoint" />
            <mxPoint x="845" y="4926" as="targetPoint" />
          </mxGeometry>
        </mxCell>
        <mxCell id="SkI0lWn-ay7iLgk8auJr-41" style="rounded=0;orthogonalLoop=1;jettySize=auto;html=1;startArrow=none;startFill=0;strokeWidth=1;endArrow=none;endFill=0;strokeColor=#FF8000;entryX=0.5;entryY=1;entryDx=0;entryDy=0;entryPerimeter=0;exitX=0.5;exitY=0;exitDx=0;exitDy=0;" parent="1" source="SkI0lWn-ay7iLgk8auJr-16" target="SkI0lWn-ay7iLgk8auJr-21" edge="1">
          <mxGeometry relative="1" as="geometry">
            <mxPoint x="873" y="5090" as="sourcePoint" />
            <mxPoint x="855" y="4936" as="targetPoint" />
          </mxGeometry>
        </mxCell>
        <mxCell id="SkI0lWn-ay7iLgk8auJr-42" style="rounded=0;orthogonalLoop=1;jettySize=auto;html=1;startArrow=none;startFill=0;strokeWidth=1;endArrow=none;endFill=0;strokeColor=#FF8000;entryX=0.5;entryY=1;entryDx=0;entryDy=0;entryPerimeter=0;exitX=0.5;exitY=0;exitDx=0;exitDy=0;" parent="1" source="SkI0lWn-ay7iLgk8auJr-13" target="SkI0lWn-ay7iLgk8auJr-1" edge="1">
          <mxGeometry relative="1" as="geometry">
            <mxPoint x="883" y="5100" as="sourcePoint" />
            <mxPoint x="865" y="4946" as="targetPoint" />
          </mxGeometry>
        </mxCell>
        <mxCell id="SkI0lWn-ay7iLgk8auJr-43" value="" style="shape=mxgraph.cisco.switches.atm_switch;sketch=0;html=1;pointerEvents=1;dashed=0;fillColor=#036897;strokeColor=#ffffff;strokeWidth=2;verticalLabelPosition=bottom;verticalAlign=top;align=center;outlineConnect=0;" parent="1" vertex="1">
          <mxGeometry x="1125" y="4840" width="40" height="36" as="geometry" />
        </mxCell>
        <mxCell id="SkI0lWn-ay7iLgk8auJr-44" value="" style="shape=mxgraph.rack.ibm.ibm_x3630_m3;html=1;labelPosition=right;align=left;spacingLeft=15;dashed=0;shadow=0;fillColor=#ffffff;" parent="1" vertex="1">
          <mxGeometry x="1125" y="5050" width="80" height="30" as="geometry" />
        </mxCell>
        <mxCell id="SkI0lWn-ay7iLgk8auJr-45" style="rounded=0;orthogonalLoop=1;jettySize=auto;html=1;exitX=0.25;exitY=0;exitDx=0;exitDy=0;startArrow=none;startFill=0;strokeWidth=1;endArrow=none;endFill=0;strokeColor=#FF8000;" parent="1" source="SkI0lWn-ay7iLgk8auJr-46" target="SkI0lWn-ay7iLgk8auJr-43" edge="1">
          <mxGeometry relative="1" as="geometry" />
        </mxCell>
        <mxCell id="SkI0lWn-ay7iLgk8auJr-46" value="" style="rounded=0;whiteSpace=wrap;html=1;fillColor=#008a00;strokeColor=#005700;fontColor=#ffffff;" parent="1" vertex="1">
          <mxGeometry x="1125" y="5030" width="10" height="20" as="geometry" />
        </mxCell>
        <mxCell id="SkI0lWn-ay7iLgk8auJr-47" value="" style="rounded=0;whiteSpace=wrap;html=1;fillColor=#ffcd28;strokeColor=#d79b00;gradientColor=#ffa500;" parent="1" vertex="1">
          <mxGeometry x="1165" y="5030" width="10" height="20" as="geometry" />
        </mxCell>
        <mxCell id="SkI0lWn-ay7iLgk8auJr-48" value="" style="rounded=0;whiteSpace=wrap;html=1;fillColor=#6a00ff;strokeColor=#3700CC;fontColor=#ffffff;" parent="1" vertex="1">
          <mxGeometry x="1145" y="5030" width="10" height="20" as="geometry" />
        </mxCell>
        <mxCell id="SkI0lWn-ay7iLgk8auJr-49" value="" style="rounded=0;whiteSpace=wrap;html=1;fillColor=#1ba1e2;strokeColor=#006EAF;fontColor=#ffffff;" parent="1" vertex="1">
          <mxGeometry x="1135" y="5030" width="10" height="20" as="geometry" />
        </mxCell>
        <mxCell id="SkI0lWn-ay7iLgk8auJr-50" value="" style="rounded=0;whiteSpace=wrap;html=1;fillColor=#0000FF;strokeColor=#7F00FF;" parent="1" vertex="1">
          <mxGeometry x="1175" y="5030" width="10" height="20" as="geometry" />
        </mxCell>
        <mxCell id="SkI0lWn-ay7iLgk8auJr-51" value="" style="rounded=0;whiteSpace=wrap;html=1;fillColor=#a20025;strokeColor=#6F0000;fontColor=#ffffff;" parent="1" vertex="1">
          <mxGeometry x="1155" y="5030" width="10" height="20" as="geometry" />
        </mxCell>
        <mxCell id="SkI0lWn-ay7iLgk8auJr-52" value="" style="rounded=0;whiteSpace=wrap;html=1;fillColor=#e3c800;strokeColor=#B09500;fontColor=#000000;" parent="1" vertex="1">
          <mxGeometry x="1185" y="5030" width="10" height="20" as="geometry" />
        </mxCell>
        <mxCell id="SkI0lWn-ay7iLgk8auJr-53" value="" style="rounded=0;whiteSpace=wrap;html=1;fillColor=#0050ef;strokeColor=#001DBC;fontColor=#ffffff;" parent="1" vertex="1">
          <mxGeometry x="1195" y="5030" width="10" height="20" as="geometry" />
        </mxCell>
        <mxCell id="SkI0lWn-ay7iLgk8auJr-54" value="" style="shape=mxgraph.rack.ibm.ibm_x3630_m3;html=1;labelPosition=right;align=left;spacingLeft=15;dashed=0;shadow=0;fillColor=#ffffff;" parent="1" vertex="1">
          <mxGeometry x="1505" y="5050" width="80" height="30" as="geometry" />
        </mxCell>
        <mxCell id="SkI0lWn-ay7iLgk8auJr-55" value="" style="rounded=0;whiteSpace=wrap;html=1;fillColor=#008a00;strokeColor=#005700;fontColor=#ffffff;" parent="1" vertex="1">
          <mxGeometry x="1505" y="5030" width="10" height="20" as="geometry" />
        </mxCell>
        <mxCell id="SkI0lWn-ay7iLgk8auJr-56" value="" style="rounded=0;whiteSpace=wrap;html=1;fillColor=#ffcd28;strokeColor=#d79b00;gradientColor=#ffa500;" parent="1" vertex="1">
          <mxGeometry x="1545" y="5030" width="10" height="20" as="geometry" />
        </mxCell>
        <mxCell id="SkI0lWn-ay7iLgk8auJr-57" value="" style="rounded=0;whiteSpace=wrap;html=1;fillColor=#6a00ff;strokeColor=#3700CC;fontColor=#ffffff;" parent="1" vertex="1">
          <mxGeometry x="1525" y="5030" width="10" height="20" as="geometry" />
        </mxCell>
        <mxCell id="SkI0lWn-ay7iLgk8auJr-58" value="" style="rounded=0;whiteSpace=wrap;html=1;fillColor=#1ba1e2;strokeColor=#006EAF;fontColor=#ffffff;" parent="1" vertex="1">
          <mxGeometry x="1515" y="5030" width="10" height="20" as="geometry" />
        </mxCell>
        <mxCell id="SkI0lWn-ay7iLgk8auJr-59" value="" style="rounded=0;whiteSpace=wrap;html=1;fillColor=#0000FF;strokeColor=#7F00FF;" parent="1" vertex="1">
          <mxGeometry x="1555" y="5030" width="10" height="20" as="geometry" />
        </mxCell>
        <mxCell id="SkI0lWn-ay7iLgk8auJr-60" value="" style="rounded=0;whiteSpace=wrap;html=1;fillColor=#a20025;strokeColor=#6F0000;fontColor=#ffffff;" parent="1" vertex="1">
          <mxGeometry x="1535" y="5030" width="10" height="20" as="geometry" />
        </mxCell>
        <mxCell id="SkI0lWn-ay7iLgk8auJr-61" value="" style="rounded=0;whiteSpace=wrap;html=1;fillColor=#e3c800;strokeColor=#B09500;fontColor=#000000;" parent="1" vertex="1">
          <mxGeometry x="1565" y="5030" width="10" height="20" as="geometry" />
        </mxCell>
        <mxCell id="SkI0lWn-ay7iLgk8auJr-62" value="" style="rounded=0;whiteSpace=wrap;html=1;fillColor=#0050ef;strokeColor=#001DBC;fontColor=#ffffff;" parent="1" vertex="1">
          <mxGeometry x="1575" y="5030" width="10" height="20" as="geometry" />
        </mxCell>
        <mxCell id="SkI0lWn-ay7iLgk8auJr-63" value="" style="shape=mxgraph.cisco.switches.atm_switch;sketch=0;html=1;pointerEvents=1;dashed=0;fillColor=#036897;strokeColor=#ffffff;strokeWidth=2;verticalLabelPosition=bottom;verticalAlign=top;align=center;outlineConnect=0;" parent="1" vertex="1">
          <mxGeometry x="1185" y="4840" width="40" height="36" as="geometry" />
        </mxCell>
        <mxCell id="SkI0lWn-ay7iLgk8auJr-64" value="" style="shape=mxgraph.cisco.switches.atm_switch;sketch=0;html=1;pointerEvents=1;dashed=0;fillColor=#036897;strokeColor=#ffffff;strokeWidth=2;verticalLabelPosition=bottom;verticalAlign=top;align=center;outlineConnect=0;" parent="1" vertex="1">
          <mxGeometry x="1245" y="4840" width="40" height="36" as="geometry" />
        </mxCell>
        <mxCell id="SkI0lWn-ay7iLgk8auJr-65" value="" style="shape=mxgraph.cisco.switches.atm_switch;sketch=0;html=1;pointerEvents=1;dashed=0;fillColor=#036897;strokeColor=#ffffff;strokeWidth=2;verticalLabelPosition=bottom;verticalAlign=top;align=center;outlineConnect=0;" parent="1" vertex="1">
          <mxGeometry x="1305" y="4840" width="40" height="36" as="geometry" />
        </mxCell>
        <mxCell id="SkI0lWn-ay7iLgk8auJr-66" value="" style="shape=mxgraph.cisco.switches.atm_switch;sketch=0;html=1;pointerEvents=1;dashed=0;fillColor=#036897;strokeColor=#ffffff;strokeWidth=2;verticalLabelPosition=bottom;verticalAlign=top;align=center;outlineConnect=0;" parent="1" vertex="1">
          <mxGeometry x="1365" y="4840" width="40" height="36" as="geometry" />
        </mxCell>
        <mxCell id="SkI0lWn-ay7iLgk8auJr-67" value="" style="shape=mxgraph.cisco.switches.atm_switch;sketch=0;html=1;pointerEvents=1;dashed=0;fillColor=#036897;strokeColor=#ffffff;strokeWidth=2;verticalLabelPosition=bottom;verticalAlign=top;align=center;outlineConnect=0;" parent="1" vertex="1">
          <mxGeometry x="1425" y="4840" width="40" height="36" as="geometry" />
        </mxCell>
        <mxCell id="SkI0lWn-ay7iLgk8auJr-68" value="" style="shape=mxgraph.cisco.switches.atm_switch;sketch=0;html=1;pointerEvents=1;dashed=0;fillColor=#036897;strokeColor=#ffffff;strokeWidth=2;verticalLabelPosition=bottom;verticalAlign=top;align=center;outlineConnect=0;" parent="1" vertex="1">
          <mxGeometry x="1485" y="4840" width="40" height="36" as="geometry" />
        </mxCell>
        <mxCell id="SkI0lWn-ay7iLgk8auJr-69" value="" style="shape=mxgraph.cisco.switches.atm_switch;sketch=0;html=1;pointerEvents=1;dashed=0;fillColor=#036897;strokeColor=#ffffff;strokeWidth=2;verticalLabelPosition=bottom;verticalAlign=top;align=center;outlineConnect=0;" parent="1" vertex="1">
          <mxGeometry x="1545" y="4840" width="40" height="36" as="geometry" />
        </mxCell>
        <mxCell id="SkI0lWn-ay7iLgk8auJr-70" style="rounded=0;orthogonalLoop=1;jettySize=auto;html=1;startArrow=none;startFill=0;strokeWidth=1;endArrow=none;endFill=0;strokeColor=#FF8000;entryX=0.5;entryY=1;entryDx=0;entryDy=0;entryPerimeter=0;exitX=0.25;exitY=0;exitDx=0;exitDy=0;" parent="1" source="SkI0lWn-ay7iLgk8auJr-49" target="SkI0lWn-ay7iLgk8auJr-63" edge="1">
          <mxGeometry relative="1" as="geometry">
            <mxPoint x="1145" y="5030" as="sourcePoint" />
            <mxPoint x="1153" y="4886" as="targetPoint" />
          </mxGeometry>
        </mxCell>
        <mxCell id="SkI0lWn-ay7iLgk8auJr-71" style="rounded=0;orthogonalLoop=1;jettySize=auto;html=1;startArrow=none;startFill=0;strokeWidth=1;endArrow=none;endFill=0;strokeColor=#FF8000;entryX=0.5;entryY=1;entryDx=0;entryDy=0;entryPerimeter=0;exitX=0.5;exitY=0;exitDx=0;exitDy=0;" parent="1" source="SkI0lWn-ay7iLgk8auJr-48" target="SkI0lWn-ay7iLgk8auJr-64" edge="1">
          <mxGeometry relative="1" as="geometry">
            <mxPoint x="1148" y="5040" as="sourcePoint" />
            <mxPoint x="1215" y="4886" as="targetPoint" />
          </mxGeometry>
        </mxCell>
        <mxCell id="SkI0lWn-ay7iLgk8auJr-72" style="rounded=0;orthogonalLoop=1;jettySize=auto;html=1;startArrow=none;startFill=0;strokeWidth=1;endArrow=none;endFill=0;strokeColor=#FF8000;entryX=0.5;entryY=1;entryDx=0;entryDy=0;entryPerimeter=0;exitX=0.5;exitY=0;exitDx=0;exitDy=0;" parent="1" source="SkI0lWn-ay7iLgk8auJr-51" target="SkI0lWn-ay7iLgk8auJr-65" edge="1">
          <mxGeometry relative="1" as="geometry">
            <mxPoint x="1158" y="5050" as="sourcePoint" />
            <mxPoint x="1225" y="4896" as="targetPoint" />
          </mxGeometry>
        </mxCell>
        <mxCell id="SkI0lWn-ay7iLgk8auJr-73" style="rounded=0;orthogonalLoop=1;jettySize=auto;html=1;startArrow=none;startFill=0;strokeWidth=1;endArrow=none;endFill=0;strokeColor=#FF8000;entryX=0.5;entryY=1;entryDx=0;entryDy=0;entryPerimeter=0;exitX=0.5;exitY=0;exitDx=0;exitDy=0;" parent="1" source="SkI0lWn-ay7iLgk8auJr-47" target="SkI0lWn-ay7iLgk8auJr-66" edge="1">
          <mxGeometry relative="1" as="geometry">
            <mxPoint x="1168" y="5060" as="sourcePoint" />
            <mxPoint x="1235" y="4906" as="targetPoint" />
          </mxGeometry>
        </mxCell>
        <mxCell id="SkI0lWn-ay7iLgk8auJr-74" style="rounded=0;orthogonalLoop=1;jettySize=auto;html=1;startArrow=none;startFill=0;strokeWidth=1;endArrow=none;endFill=0;strokeColor=#FF8000;entryX=0.5;entryY=1;entryDx=0;entryDy=0;entryPerimeter=0;exitX=0.5;exitY=0;exitDx=0;exitDy=0;" parent="1" source="SkI0lWn-ay7iLgk8auJr-50" target="SkI0lWn-ay7iLgk8auJr-67" edge="1">
          <mxGeometry relative="1" as="geometry">
            <mxPoint x="1178" y="5070" as="sourcePoint" />
            <mxPoint x="1245" y="4916" as="targetPoint" />
          </mxGeometry>
        </mxCell>
        <mxCell id="SkI0lWn-ay7iLgk8auJr-75" style="rounded=0;orthogonalLoop=1;jettySize=auto;html=1;startArrow=none;startFill=0;strokeWidth=1;endArrow=none;endFill=0;strokeColor=#FF8000;entryX=0.5;entryY=1;entryDx=0;entryDy=0;entryPerimeter=0;exitX=0.5;exitY=0;exitDx=0;exitDy=0;" parent="1" source="SkI0lWn-ay7iLgk8auJr-52" target="SkI0lWn-ay7iLgk8auJr-68" edge="1">
          <mxGeometry relative="1" as="geometry">
            <mxPoint x="1188" y="5080" as="sourcePoint" />
            <mxPoint x="1255" y="4926" as="targetPoint" />
          </mxGeometry>
        </mxCell>
        <mxCell id="SkI0lWn-ay7iLgk8auJr-76" style="rounded=0;orthogonalLoop=1;jettySize=auto;html=1;startArrow=none;startFill=0;strokeWidth=1;endArrow=none;endFill=0;strokeColor=#FF8000;entryX=0.5;entryY=1;entryDx=0;entryDy=0;entryPerimeter=0;exitX=0.5;exitY=0;exitDx=0;exitDy=0;" parent="1" source="SkI0lWn-ay7iLgk8auJr-53" target="SkI0lWn-ay7iLgk8auJr-69" edge="1">
          <mxGeometry relative="1" as="geometry">
            <mxPoint x="1198" y="5090" as="sourcePoint" />
            <mxPoint x="1265" y="4936" as="targetPoint" />
          </mxGeometry>
        </mxCell>
        <mxCell id="SkI0lWn-ay7iLgk8auJr-77" style="rounded=0;orthogonalLoop=1;jettySize=auto;html=1;startArrow=none;startFill=0;strokeWidth=1;endArrow=none;endFill=0;strokeColor=#FF8000;entryX=0.5;entryY=1;entryDx=0;entryDy=0;entryPerimeter=0;exitX=0.75;exitY=0;exitDx=0;exitDy=0;" parent="1" source="SkI0lWn-ay7iLgk8auJr-62" target="SkI0lWn-ay7iLgk8auJr-69" edge="1">
          <mxGeometry relative="1" as="geometry">
            <mxPoint x="1208" y="5100" as="sourcePoint" />
            <mxPoint x="1275" y="4946" as="targetPoint" />
          </mxGeometry>
        </mxCell>
        <mxCell id="SkI0lWn-ay7iLgk8auJr-78" style="rounded=0;orthogonalLoop=1;jettySize=auto;html=1;startArrow=none;startFill=0;strokeWidth=1;endArrow=none;endFill=0;strokeColor=#FF8000;entryX=0.5;entryY=1;entryDx=0;entryDy=0;entryPerimeter=0;exitX=-0.443;exitY=0.01;exitDx=0;exitDy=0;exitPerimeter=0;" parent="1" source="SkI0lWn-ay7iLgk8auJr-62" target="SkI0lWn-ay7iLgk8auJr-68" edge="1">
          <mxGeometry relative="1" as="geometry">
            <mxPoint x="1593" y="5040" as="sourcePoint" />
            <mxPoint x="1575" y="4886" as="targetPoint" />
          </mxGeometry>
        </mxCell>
        <mxCell id="SkI0lWn-ay7iLgk8auJr-79" style="rounded=0;orthogonalLoop=1;jettySize=auto;html=1;startArrow=none;startFill=0;strokeWidth=1;endArrow=none;endFill=0;strokeColor=#FF8000;entryX=0.5;entryY=1;entryDx=0;entryDy=0;entryPerimeter=0;exitX=0.5;exitY=0;exitDx=0;exitDy=0;" parent="1" source="SkI0lWn-ay7iLgk8auJr-59" target="SkI0lWn-ay7iLgk8auJr-67" edge="1">
          <mxGeometry relative="1" as="geometry">
            <mxPoint x="1603" y="5050" as="sourcePoint" />
            <mxPoint x="1585" y="4896" as="targetPoint" />
          </mxGeometry>
        </mxCell>
        <mxCell id="SkI0lWn-ay7iLgk8auJr-80" style="rounded=0;orthogonalLoop=1;jettySize=auto;html=1;startArrow=none;startFill=0;strokeWidth=1;endArrow=none;endFill=0;strokeColor=#FF8000;entryX=0.5;entryY=1;entryDx=0;entryDy=0;entryPerimeter=0;" parent="1" target="SkI0lWn-ay7iLgk8auJr-66" edge="1">
          <mxGeometry relative="1" as="geometry">
            <mxPoint x="1550" y="5030" as="sourcePoint" />
            <mxPoint x="1595" y="4906" as="targetPoint" />
          </mxGeometry>
        </mxCell>
        <mxCell id="SkI0lWn-ay7iLgk8auJr-81" style="rounded=0;orthogonalLoop=1;jettySize=auto;html=1;startArrow=none;startFill=0;strokeWidth=1;endArrow=none;endFill=0;strokeColor=#FF8000;entryX=0.5;entryY=1;entryDx=0;entryDy=0;entryPerimeter=0;exitX=0.5;exitY=0;exitDx=0;exitDy=0;" parent="1" source="SkI0lWn-ay7iLgk8auJr-60" target="SkI0lWn-ay7iLgk8auJr-65" edge="1">
          <mxGeometry relative="1" as="geometry">
            <mxPoint x="1623" y="5070" as="sourcePoint" />
            <mxPoint x="1605" y="4916" as="targetPoint" />
          </mxGeometry>
        </mxCell>
        <mxCell id="SkI0lWn-ay7iLgk8auJr-82" style="rounded=0;orthogonalLoop=1;jettySize=auto;html=1;startArrow=none;startFill=0;strokeWidth=1;endArrow=none;endFill=0;strokeColor=#FF8000;entryX=0.5;entryY=1;entryDx=0;entryDy=0;entryPerimeter=0;exitX=0.5;exitY=0;exitDx=0;exitDy=0;" parent="1" source="SkI0lWn-ay7iLgk8auJr-57" target="SkI0lWn-ay7iLgk8auJr-64" edge="1">
          <mxGeometry relative="1" as="geometry">
            <mxPoint x="1633" y="5080" as="sourcePoint" />
            <mxPoint x="1615" y="4926" as="targetPoint" />
          </mxGeometry>
        </mxCell>
        <mxCell id="SkI0lWn-ay7iLgk8auJr-83" style="rounded=0;orthogonalLoop=1;jettySize=auto;html=1;startArrow=none;startFill=0;strokeWidth=1;endArrow=none;endFill=0;strokeColor=#FF8000;entryX=0.5;entryY=1;entryDx=0;entryDy=0;entryPerimeter=0;exitX=0.5;exitY=0;exitDx=0;exitDy=0;" parent="1" source="SkI0lWn-ay7iLgk8auJr-58" target="SkI0lWn-ay7iLgk8auJr-63" edge="1">
          <mxGeometry relative="1" as="geometry">
            <mxPoint x="1643" y="5090" as="sourcePoint" />
            <mxPoint x="1625" y="4936" as="targetPoint" />
          </mxGeometry>
        </mxCell>
        <mxCell id="SkI0lWn-ay7iLgk8auJr-84" style="rounded=0;orthogonalLoop=1;jettySize=auto;html=1;startArrow=none;startFill=0;strokeWidth=1;endArrow=none;endFill=0;strokeColor=#FF8000;entryX=0.5;entryY=1;entryDx=0;entryDy=0;entryPerimeter=0;exitX=0.5;exitY=0;exitDx=0;exitDy=0;" parent="1" source="SkI0lWn-ay7iLgk8auJr-55" target="SkI0lWn-ay7iLgk8auJr-43" edge="1">
          <mxGeometry relative="1" as="geometry">
            <mxPoint x="1653" y="5100" as="sourcePoint" />
            <mxPoint x="1635" y="4946" as="targetPoint" />
          </mxGeometry>
        </mxCell>
        <mxCell id="SkI0lWn-ay7iLgk8auJr-85" value="" style="shape=mxgraph.cisco.switches.atm_switch;sketch=0;html=1;pointerEvents=1;dashed=0;fillColor=#036897;strokeColor=#ffffff;strokeWidth=2;verticalLabelPosition=bottom;verticalAlign=top;align=center;outlineConnect=0;" parent="1" vertex="1">
          <mxGeometry x="425" y="4600" width="40" height="36" as="geometry" />
        </mxCell>
        <mxCell id="SkI0lWn-ay7iLgk8auJr-86" value="" style="shape=mxgraph.cisco.switches.atm_switch;sketch=0;html=1;pointerEvents=1;dashed=0;fillColor=#036897;strokeColor=#ffffff;strokeWidth=2;verticalLabelPosition=bottom;verticalAlign=top;align=center;outlineConnect=0;" parent="1" vertex="1">
          <mxGeometry x="695" y="4600" width="40" height="36" as="geometry" />
        </mxCell>
        <mxCell id="SkI0lWn-ay7iLgk8auJr-87" value="" style="shape=mxgraph.cisco.switches.atm_switch;sketch=0;html=1;pointerEvents=1;dashed=0;fillColor=#036897;strokeColor=#ffffff;strokeWidth=2;verticalLabelPosition=bottom;verticalAlign=top;align=center;outlineConnect=0;" parent="1" vertex="1">
          <mxGeometry x="1475" y="4600" width="40" height="36" as="geometry" />
        </mxCell>
        <mxCell id="SkI0lWn-ay7iLgk8auJr-88" value="&lt;font style=&quot;font-size: 50px;&quot;&gt;...&lt;/font&gt;" style="text;strokeColor=none;align=center;fillColor=none;html=1;verticalAlign=middle;whiteSpace=wrap;rounded=0;" parent="1" vertex="1">
          <mxGeometry x="935" y="4930" width="60" height="30" as="geometry" />
        </mxCell>
        <mxCell id="SkI0lWn-ay7iLgk8auJr-89" value="&lt;font style=&quot;font-size: 50px;&quot;&gt;...&lt;/font&gt;" style="text;strokeColor=none;align=center;fillColor=none;html=1;verticalAlign=middle;whiteSpace=wrap;rounded=0;" parent="1" vertex="1">
          <mxGeometry x="945" y="4590" width="60" height="30" as="geometry" />
        </mxCell>
        <mxCell id="SkI0lWn-ay7iLgk8auJr-90" style="rounded=0;orthogonalLoop=1;jettySize=auto;html=1;exitX=0.5;exitY=0;exitDx=0;exitDy=0;startArrow=none;startFill=0;strokeWidth=1;endArrow=none;endFill=0;strokeColor=#FF8000;entryX=0.5;entryY=1;entryDx=0;entryDy=0;entryPerimeter=0;exitPerimeter=0;" parent="1" source="SkI0lWn-ay7iLgk8auJr-1" target="SkI0lWn-ay7iLgk8auJr-85" edge="1">
          <mxGeometry relative="1" as="geometry">
            <mxPoint x="367" y="5040" as="sourcePoint" />
            <mxPoint x="383" y="4886" as="targetPoint" />
          </mxGeometry>
        </mxCell>
        <mxCell id="SkI0lWn-ay7iLgk8auJr-91" style="rounded=0;orthogonalLoop=1;jettySize=auto;html=1;exitX=0.5;exitY=0;exitDx=0;exitDy=0;startArrow=none;startFill=0;strokeWidth=1;endArrow=none;endFill=0;strokeColor=#FF8000;entryX=0.5;entryY=1;entryDx=0;entryDy=0;entryPerimeter=0;exitPerimeter=0;" parent="1" source="SkI0lWn-ay7iLgk8auJr-1" target="SkI0lWn-ay7iLgk8auJr-86" edge="1">
          <mxGeometry relative="1" as="geometry">
            <mxPoint x="385" y="4850" as="sourcePoint" />
            <mxPoint x="455" y="4686" as="targetPoint" />
          </mxGeometry>
        </mxCell>
        <mxCell id="SkI0lWn-ay7iLgk8auJr-92" style="rounded=0;orthogonalLoop=1;jettySize=auto;html=1;exitX=0.5;exitY=0;exitDx=0;exitDy=0;startArrow=none;startFill=0;strokeWidth=1;endArrow=none;endFill=0;strokeColor=#FF8000;entryX=0.5;entryY=1;entryDx=0;entryDy=0;entryPerimeter=0;exitPerimeter=0;" parent="1" source="SkI0lWn-ay7iLgk8auJr-21" target="SkI0lWn-ay7iLgk8auJr-85" edge="1">
          <mxGeometry relative="1" as="geometry">
            <mxPoint x="385" y="4850" as="sourcePoint" />
            <mxPoint x="725" y="4686" as="targetPoint" />
          </mxGeometry>
        </mxCell>
        <mxCell id="SkI0lWn-ay7iLgk8auJr-93" style="rounded=0;orthogonalLoop=1;jettySize=auto;html=1;exitX=0.5;exitY=0;exitDx=0;exitDy=0;startArrow=none;startFill=0;strokeWidth=1;endArrow=none;endFill=0;strokeColor=#FF8000;entryX=0.5;entryY=1;entryDx=0;entryDy=0;entryPerimeter=0;exitPerimeter=0;" parent="1" source="SkI0lWn-ay7iLgk8auJr-21" target="SkI0lWn-ay7iLgk8auJr-86" edge="1">
          <mxGeometry relative="1" as="geometry">
            <mxPoint x="445" y="4850" as="sourcePoint" />
            <mxPoint x="455" y="4686" as="targetPoint" />
          </mxGeometry>
        </mxCell>
        <mxCell id="SkI0lWn-ay7iLgk8auJr-94" style="rounded=0;orthogonalLoop=1;jettySize=auto;html=1;startArrow=none;startFill=0;strokeWidth=1;endArrow=none;endFill=0;strokeColor=#FF8000;entryX=0.5;entryY=1;entryDx=0;entryDy=0;entryPerimeter=0;exitX=0.5;exitY=0;exitDx=0;exitDy=0;exitPerimeter=0;" parent="1" source="SkI0lWn-ay7iLgk8auJr-22" target="SkI0lWn-ay7iLgk8auJr-85" edge="1">
          <mxGeometry relative="1" as="geometry">
            <mxPoint x="455" y="4860" as="sourcePoint" />
            <mxPoint x="465" y="4696" as="targetPoint" />
          </mxGeometry>
        </mxCell>
        <mxCell id="SkI0lWn-ay7iLgk8auJr-95" style="rounded=0;orthogonalLoop=1;jettySize=auto;html=1;startArrow=none;startFill=0;strokeWidth=1;endArrow=none;endFill=0;strokeColor=#FF8000;entryX=0.5;entryY=1;entryDx=0;entryDy=0;entryPerimeter=0;exitX=0.5;exitY=0;exitDx=0;exitDy=0;exitPerimeter=0;" parent="1" source="SkI0lWn-ay7iLgk8auJr-23" target="SkI0lWn-ay7iLgk8auJr-85" edge="1">
          <mxGeometry relative="1" as="geometry">
            <mxPoint x="505" y="4850" as="sourcePoint" />
            <mxPoint x="455" y="4686" as="targetPoint" />
          </mxGeometry>
        </mxCell>
        <mxCell id="SkI0lWn-ay7iLgk8auJr-96" style="rounded=0;orthogonalLoop=1;jettySize=auto;html=1;startArrow=none;startFill=0;strokeWidth=1;endArrow=none;endFill=0;strokeColor=#FF8000;entryX=0.5;entryY=1;entryDx=0;entryDy=0;entryPerimeter=0;exitX=0.5;exitY=0;exitDx=0;exitDy=0;exitPerimeter=0;" parent="1" source="SkI0lWn-ay7iLgk8auJr-24" target="SkI0lWn-ay7iLgk8auJr-85" edge="1">
          <mxGeometry relative="1" as="geometry">
            <mxPoint x="515" y="4860" as="sourcePoint" />
            <mxPoint x="465" y="4696" as="targetPoint" />
          </mxGeometry>
        </mxCell>
        <mxCell id="SkI0lWn-ay7iLgk8auJr-97" style="rounded=0;orthogonalLoop=1;jettySize=auto;html=1;startArrow=none;startFill=0;strokeWidth=1;endArrow=none;endFill=0;strokeColor=#FF8000;exitX=0.5;exitY=0;exitDx=0;exitDy=0;exitPerimeter=0;entryX=0.5;entryY=1;entryDx=0;entryDy=0;entryPerimeter=0;" parent="1" source="SkI0lWn-ay7iLgk8auJr-25" target="SkI0lWn-ay7iLgk8auJr-85" edge="1">
          <mxGeometry relative="1" as="geometry">
            <mxPoint x="525" y="4870" as="sourcePoint" />
            <mxPoint x="445" y="4680" as="targetPoint" />
          </mxGeometry>
        </mxCell>
        <mxCell id="SkI0lWn-ay7iLgk8auJr-98" style="rounded=0;orthogonalLoop=1;jettySize=auto;html=1;startArrow=none;startFill=0;strokeWidth=1;endArrow=none;endFill=0;strokeColor=#FF8000;exitX=0.5;exitY=0;exitDx=0;exitDy=0;exitPerimeter=0;entryX=0.5;entryY=1;entryDx=0;entryDy=0;entryPerimeter=0;" parent="1" source="SkI0lWn-ay7iLgk8auJr-26" target="SkI0lWn-ay7iLgk8auJr-85" edge="1">
          <mxGeometry relative="1" as="geometry">
            <mxPoint x="535" y="4880" as="sourcePoint" />
            <mxPoint x="445" y="4680" as="targetPoint" />
          </mxGeometry>
        </mxCell>
        <mxCell id="SkI0lWn-ay7iLgk8auJr-99" style="rounded=0;orthogonalLoop=1;jettySize=auto;html=1;startArrow=none;startFill=0;strokeWidth=1;endArrow=none;endFill=0;strokeColor=#FF8000;entryX=0.5;entryY=1;entryDx=0;entryDy=0;entryPerimeter=0;exitX=0.5;exitY=0;exitDx=0;exitDy=0;exitPerimeter=0;" parent="1" source="SkI0lWn-ay7iLgk8auJr-27" target="SkI0lWn-ay7iLgk8auJr-85" edge="1">
          <mxGeometry relative="1" as="geometry">
            <mxPoint x="545" y="4890" as="sourcePoint" />
            <mxPoint x="495" y="4726" as="targetPoint" />
          </mxGeometry>
        </mxCell>
        <mxCell id="SkI0lWn-ay7iLgk8auJr-100" style="rounded=0;orthogonalLoop=1;jettySize=auto;html=1;exitX=0.5;exitY=0;exitDx=0;exitDy=0;startArrow=none;startFill=0;strokeWidth=1;endArrow=none;endFill=0;strokeColor=#FF8000;entryX=0.5;entryY=1;entryDx=0;entryDy=0;entryPerimeter=0;exitPerimeter=0;" parent="1" source="SkI0lWn-ay7iLgk8auJr-22" target="SkI0lWn-ay7iLgk8auJr-86" edge="1">
          <mxGeometry relative="1" as="geometry">
            <mxPoint x="445" y="4850" as="sourcePoint" />
            <mxPoint x="725" y="4686" as="targetPoint" />
          </mxGeometry>
        </mxCell>
        <mxCell id="SkI0lWn-ay7iLgk8auJr-101" style="rounded=0;orthogonalLoop=1;jettySize=auto;html=1;startArrow=none;startFill=0;strokeWidth=1;endArrow=none;endFill=0;strokeColor=#FF8000;entryX=0.5;entryY=1;entryDx=0;entryDy=0;entryPerimeter=0;" parent="1" target="SkI0lWn-ay7iLgk8auJr-86" edge="1">
          <mxGeometry relative="1" as="geometry">
            <mxPoint x="555" y="4840" as="sourcePoint" />
            <mxPoint x="735" y="4696" as="targetPoint" />
          </mxGeometry>
        </mxCell>
        <mxCell id="SkI0lWn-ay7iLgk8auJr-102" style="rounded=0;orthogonalLoop=1;jettySize=auto;html=1;exitX=0.5;exitY=0;exitDx=0;exitDy=0;startArrow=none;startFill=0;strokeWidth=1;endArrow=none;endFill=0;strokeColor=#FF8000;entryX=0.5;entryY=1;entryDx=0;entryDy=0;entryPerimeter=0;exitPerimeter=0;" parent="1" source="SkI0lWn-ay7iLgk8auJr-24" target="SkI0lWn-ay7iLgk8auJr-86" edge="1">
          <mxGeometry relative="1" as="geometry">
            <mxPoint x="465" y="4870" as="sourcePoint" />
            <mxPoint x="745" y="4706" as="targetPoint" />
          </mxGeometry>
        </mxCell>
        <mxCell id="SkI0lWn-ay7iLgk8auJr-103" style="rounded=0;orthogonalLoop=1;jettySize=auto;html=1;startArrow=none;startFill=0;strokeWidth=1;endArrow=none;endFill=0;strokeColor=#FF8000;entryX=0.5;entryY=1;entryDx=0;entryDy=0;entryPerimeter=0;" parent="1" target="SkI0lWn-ay7iLgk8auJr-86" edge="1">
          <mxGeometry relative="1" as="geometry">
            <mxPoint x="675" y="4840" as="sourcePoint" />
            <mxPoint x="715" y="4680" as="targetPoint" />
          </mxGeometry>
        </mxCell>
        <mxCell id="SkI0lWn-ay7iLgk8auJr-104" style="rounded=0;orthogonalLoop=1;jettySize=auto;html=1;startArrow=none;startFill=0;strokeWidth=1;endArrow=none;endFill=0;strokeColor=#FF8000;entryX=0.5;entryY=1;entryDx=0;entryDy=0;entryPerimeter=0;" parent="1" target="SkI0lWn-ay7iLgk8auJr-86" edge="1">
          <mxGeometry relative="1" as="geometry">
            <mxPoint x="735" y="4840" as="sourcePoint" />
            <mxPoint x="765" y="4726" as="targetPoint" />
          </mxGeometry>
        </mxCell>
        <mxCell id="SkI0lWn-ay7iLgk8auJr-105" style="rounded=0;orthogonalLoop=1;jettySize=auto;html=1;exitX=0.5;exitY=0;exitDx=0;exitDy=0;startArrow=none;startFill=0;strokeWidth=1;endArrow=none;endFill=0;strokeColor=#FF8000;entryX=0.5;entryY=1;entryDx=0;entryDy=0;entryPerimeter=0;exitPerimeter=0;" parent="1" source="SkI0lWn-ay7iLgk8auJr-27" target="SkI0lWn-ay7iLgk8auJr-86" edge="1">
          <mxGeometry relative="1" as="geometry">
            <mxPoint x="495" y="4900" as="sourcePoint" />
            <mxPoint x="775" y="4736" as="targetPoint" />
          </mxGeometry>
        </mxCell>
        <mxCell id="SkI0lWn-ay7iLgk8auJr-106" style="rounded=0;orthogonalLoop=1;jettySize=auto;html=1;exitX=0.5;exitY=0;exitDx=0;exitDy=0;startArrow=none;startFill=0;strokeWidth=1;endArrow=none;endFill=0;strokeColor=#FF8000;entryX=0.5;entryY=1;entryDx=0;entryDy=0;entryPerimeter=0;exitPerimeter=0;" parent="1" source="SkI0lWn-ay7iLgk8auJr-1" target="SkI0lWn-ay7iLgk8auJr-87" edge="1">
          <mxGeometry relative="1" as="geometry">
            <mxPoint x="805" y="4850" as="sourcePoint" />
            <mxPoint x="725" y="4686" as="targetPoint" />
          </mxGeometry>
        </mxCell>
        <mxCell id="SkI0lWn-ay7iLgk8auJr-107" style="rounded=0;orthogonalLoop=1;jettySize=auto;html=1;exitX=0.5;exitY=0;exitDx=0;exitDy=0;startArrow=none;startFill=0;strokeWidth=1;endArrow=none;endFill=0;strokeColor=#FF8000;entryX=0.5;entryY=1;entryDx=0;entryDy=0;entryPerimeter=0;exitPerimeter=0;" parent="1" source="SkI0lWn-ay7iLgk8auJr-21" target="SkI0lWn-ay7iLgk8auJr-87" edge="1">
          <mxGeometry relative="1" as="geometry">
            <mxPoint x="385" y="4850" as="sourcePoint" />
            <mxPoint x="1505" y="4686" as="targetPoint" />
          </mxGeometry>
        </mxCell>
        <mxCell id="SkI0lWn-ay7iLgk8auJr-108" style="rounded=0;orthogonalLoop=1;jettySize=auto;html=1;exitX=0.5;exitY=0;exitDx=0;exitDy=0;startArrow=none;startFill=0;strokeWidth=1;endArrow=none;endFill=0;strokeColor=#FF8000;entryX=0.5;entryY=1;entryDx=0;entryDy=0;entryPerimeter=0;exitPerimeter=0;" parent="1" source="SkI0lWn-ay7iLgk8auJr-22" target="SkI0lWn-ay7iLgk8auJr-87" edge="1">
          <mxGeometry relative="1" as="geometry">
            <mxPoint x="395" y="4860" as="sourcePoint" />
            <mxPoint x="1515" y="4696" as="targetPoint" />
          </mxGeometry>
        </mxCell>
        <mxCell id="SkI0lWn-ay7iLgk8auJr-109" style="rounded=0;orthogonalLoop=1;jettySize=auto;html=1;exitX=0.5;exitY=0;exitDx=0;exitDy=0;startArrow=none;startFill=0;strokeWidth=1;endArrow=none;endFill=0;strokeColor=#FF8000;exitPerimeter=0;entryX=0.5;entryY=1;entryDx=0;entryDy=0;entryPerimeter=0;" parent="1" source="SkI0lWn-ay7iLgk8auJr-23" target="SkI0lWn-ay7iLgk8auJr-87" edge="1">
          <mxGeometry relative="1" as="geometry">
            <mxPoint x="405" y="4870" as="sourcePoint" />
            <mxPoint x="1495" y="4680" as="targetPoint" />
          </mxGeometry>
        </mxCell>
        <mxCell id="SkI0lWn-ay7iLgk8auJr-110" style="rounded=0;orthogonalLoop=1;jettySize=auto;html=1;exitX=0.5;exitY=0;exitDx=0;exitDy=0;startArrow=none;startFill=0;strokeWidth=1;endArrow=none;endFill=0;strokeColor=#FF8000;entryX=0.5;entryY=1;entryDx=0;entryDy=0;entryPerimeter=0;exitPerimeter=0;" parent="1" source="SkI0lWn-ay7iLgk8auJr-24" target="SkI0lWn-ay7iLgk8auJr-87" edge="1">
          <mxGeometry relative="1" as="geometry">
            <mxPoint x="415" y="4880" as="sourcePoint" />
            <mxPoint x="1535" y="4716" as="targetPoint" />
          </mxGeometry>
        </mxCell>
        <mxCell id="SkI0lWn-ay7iLgk8auJr-111" style="rounded=0;orthogonalLoop=1;jettySize=auto;html=1;exitX=0.5;exitY=0;exitDx=0;exitDy=0;startArrow=none;startFill=0;strokeWidth=1;endArrow=none;endFill=0;strokeColor=#FF8000;entryX=0.5;entryY=1;entryDx=0;entryDy=0;entryPerimeter=0;exitPerimeter=0;" parent="1" source="SkI0lWn-ay7iLgk8auJr-25" target="SkI0lWn-ay7iLgk8auJr-87" edge="1">
          <mxGeometry relative="1" as="geometry">
            <mxPoint x="425" y="4890" as="sourcePoint" />
            <mxPoint x="1545" y="4726" as="targetPoint" />
          </mxGeometry>
        </mxCell>
        <mxCell id="SkI0lWn-ay7iLgk8auJr-112" style="rounded=0;orthogonalLoop=1;jettySize=auto;html=1;exitX=0.5;exitY=0;exitDx=0;exitDy=0;startArrow=none;startFill=0;strokeWidth=1;endArrow=none;endFill=0;strokeColor=#FF8000;entryX=0.5;entryY=1;entryDx=0;entryDy=0;entryPerimeter=0;exitPerimeter=0;" parent="1" source="SkI0lWn-ay7iLgk8auJr-26" target="SkI0lWn-ay7iLgk8auJr-87" edge="1">
          <mxGeometry relative="1" as="geometry">
            <mxPoint x="435" y="4900" as="sourcePoint" />
            <mxPoint x="1555" y="4736" as="targetPoint" />
          </mxGeometry>
        </mxCell>
        <mxCell id="SkI0lWn-ay7iLgk8auJr-113" style="rounded=0;orthogonalLoop=1;jettySize=auto;html=1;exitX=0.5;exitY=0;exitDx=0;exitDy=0;startArrow=none;startFill=0;strokeWidth=1;endArrow=none;endFill=0;strokeColor=#FF8000;entryX=0.5;entryY=1;entryDx=0;entryDy=0;entryPerimeter=0;exitPerimeter=0;" parent="1" source="SkI0lWn-ay7iLgk8auJr-27" target="SkI0lWn-ay7iLgk8auJr-87" edge="1">
          <mxGeometry relative="1" as="geometry">
            <mxPoint x="445" y="4910" as="sourcePoint" />
            <mxPoint x="1565" y="4746" as="targetPoint" />
          </mxGeometry>
        </mxCell>
        <mxCell id="SkI0lWn-ay7iLgk8auJr-114" style="rounded=0;orthogonalLoop=1;jettySize=auto;html=1;exitX=0.5;exitY=0;exitDx=0;exitDy=0;startArrow=none;startFill=0;strokeWidth=1;endArrow=none;endFill=0;strokeColor=#FF8000;entryX=0.5;entryY=1;entryDx=0;entryDy=0;entryPerimeter=0;exitPerimeter=0;" parent="1" source="SkI0lWn-ay7iLgk8auJr-43" target="SkI0lWn-ay7iLgk8auJr-87" edge="1">
          <mxGeometry relative="1" as="geometry">
            <mxPoint x="455" y="4920" as="sourcePoint" />
            <mxPoint x="1575" y="4756" as="targetPoint" />
          </mxGeometry>
        </mxCell>
        <mxCell id="SkI0lWn-ay7iLgk8auJr-115" style="rounded=0;orthogonalLoop=1;jettySize=auto;html=1;exitX=0.5;exitY=0;exitDx=0;exitDy=0;startArrow=none;startFill=0;strokeWidth=1;endArrow=none;endFill=0;strokeColor=#FF8000;entryX=0.5;entryY=1;entryDx=0;entryDy=0;entryPerimeter=0;exitPerimeter=0;" parent="1" source="SkI0lWn-ay7iLgk8auJr-43" target="SkI0lWn-ay7iLgk8auJr-85" edge="1">
          <mxGeometry relative="1" as="geometry">
            <mxPoint x="1155" y="4850" as="sourcePoint" />
            <mxPoint x="1505" y="4686" as="targetPoint" />
          </mxGeometry>
        </mxCell>
        <mxCell id="SkI0lWn-ay7iLgk8auJr-116" style="rounded=0;orthogonalLoop=1;jettySize=auto;html=1;exitX=0.5;exitY=0;exitDx=0;exitDy=0;startArrow=none;startFill=0;strokeWidth=1;endArrow=none;endFill=0;strokeColor=#FF8000;entryX=0.5;entryY=1;entryDx=0;entryDy=0;entryPerimeter=0;exitPerimeter=0;" parent="1" source="SkI0lWn-ay7iLgk8auJr-63" target="SkI0lWn-ay7iLgk8auJr-85" edge="1">
          <mxGeometry relative="1" as="geometry">
            <mxPoint x="1155" y="4850" as="sourcePoint" />
            <mxPoint x="455" y="4686" as="targetPoint" />
          </mxGeometry>
        </mxCell>
        <mxCell id="SkI0lWn-ay7iLgk8auJr-117" style="rounded=0;orthogonalLoop=1;jettySize=auto;html=1;exitX=0.5;exitY=0;exitDx=0;exitDy=0;startArrow=none;startFill=0;strokeWidth=1;endArrow=none;endFill=0;strokeColor=#FF8000;entryX=0.5;entryY=1;entryDx=0;entryDy=0;entryPerimeter=0;exitPerimeter=0;" parent="1" source="SkI0lWn-ay7iLgk8auJr-64" target="SkI0lWn-ay7iLgk8auJr-85" edge="1">
          <mxGeometry relative="1" as="geometry">
            <mxPoint x="1165" y="4860" as="sourcePoint" />
            <mxPoint x="465" y="4696" as="targetPoint" />
          </mxGeometry>
        </mxCell>
        <mxCell id="SkI0lWn-ay7iLgk8auJr-118" style="rounded=0;orthogonalLoop=1;jettySize=auto;html=1;exitX=0.5;exitY=0;exitDx=0;exitDy=0;startArrow=none;startFill=0;strokeWidth=1;endArrow=none;endFill=0;strokeColor=#FF8000;entryX=0.5;entryY=1;entryDx=0;entryDy=0;entryPerimeter=0;exitPerimeter=0;" parent="1" source="SkI0lWn-ay7iLgk8auJr-65" target="SkI0lWn-ay7iLgk8auJr-85" edge="1">
          <mxGeometry relative="1" as="geometry">
            <mxPoint x="1175" y="4870" as="sourcePoint" />
            <mxPoint x="475" y="4706" as="targetPoint" />
          </mxGeometry>
        </mxCell>
        <mxCell id="SkI0lWn-ay7iLgk8auJr-119" style="rounded=0;orthogonalLoop=1;jettySize=auto;html=1;exitX=0.5;exitY=0;exitDx=0;exitDy=0;startArrow=none;startFill=0;strokeWidth=1;endArrow=none;endFill=0;strokeColor=#FF8000;entryX=0.5;entryY=1;entryDx=0;entryDy=0;entryPerimeter=0;exitPerimeter=0;" parent="1" source="SkI0lWn-ay7iLgk8auJr-66" target="SkI0lWn-ay7iLgk8auJr-85" edge="1">
          <mxGeometry relative="1" as="geometry">
            <mxPoint x="1185" y="4880" as="sourcePoint" />
            <mxPoint x="485" y="4716" as="targetPoint" />
          </mxGeometry>
        </mxCell>
        <mxCell id="SkI0lWn-ay7iLgk8auJr-120" style="rounded=0;orthogonalLoop=1;jettySize=auto;html=1;exitX=0.5;exitY=0;exitDx=0;exitDy=0;startArrow=none;startFill=0;strokeWidth=1;endArrow=none;endFill=0;strokeColor=#FF8000;entryX=0.5;entryY=1;entryDx=0;entryDy=0;entryPerimeter=0;exitPerimeter=0;" parent="1" source="SkI0lWn-ay7iLgk8auJr-67" target="SkI0lWn-ay7iLgk8auJr-85" edge="1">
          <mxGeometry relative="1" as="geometry">
            <mxPoint x="1195" y="4890" as="sourcePoint" />
            <mxPoint x="495" y="4726" as="targetPoint" />
          </mxGeometry>
        </mxCell>
        <mxCell id="SkI0lWn-ay7iLgk8auJr-121" style="rounded=0;orthogonalLoop=1;jettySize=auto;html=1;exitX=0.5;exitY=0;exitDx=0;exitDy=0;startArrow=none;startFill=0;strokeWidth=1;endArrow=none;endFill=0;strokeColor=#FF8000;entryX=0.5;entryY=1;entryDx=0;entryDy=0;entryPerimeter=0;exitPerimeter=0;" parent="1" source="SkI0lWn-ay7iLgk8auJr-68" target="SkI0lWn-ay7iLgk8auJr-85" edge="1">
          <mxGeometry relative="1" as="geometry">
            <mxPoint x="1205" y="4900" as="sourcePoint" />
            <mxPoint x="505" y="4736" as="targetPoint" />
          </mxGeometry>
        </mxCell>
        <mxCell id="SkI0lWn-ay7iLgk8auJr-122" style="rounded=0;orthogonalLoop=1;jettySize=auto;html=1;exitX=0.5;exitY=0;exitDx=0;exitDy=0;startArrow=none;startFill=0;strokeWidth=1;endArrow=none;endFill=0;strokeColor=#FF8000;entryX=0.5;entryY=1;entryDx=0;entryDy=0;entryPerimeter=0;exitPerimeter=0;" parent="1" source="SkI0lWn-ay7iLgk8auJr-69" target="SkI0lWn-ay7iLgk8auJr-85" edge="1">
          <mxGeometry relative="1" as="geometry">
            <mxPoint x="1215" y="4910" as="sourcePoint" />
            <mxPoint x="515" y="4746" as="targetPoint" />
          </mxGeometry>
        </mxCell>
        <mxCell id="SkI0lWn-ay7iLgk8auJr-123" style="rounded=0;orthogonalLoop=1;jettySize=auto;html=1;exitX=0.5;exitY=0;exitDx=0;exitDy=0;startArrow=none;startFill=0;strokeWidth=1;endArrow=none;endFill=0;strokeColor=#FF8000;entryX=0.5;entryY=1;entryDx=0;entryDy=0;entryPerimeter=0;exitPerimeter=0;" parent="1" source="SkI0lWn-ay7iLgk8auJr-43" target="SkI0lWn-ay7iLgk8auJr-86" edge="1">
          <mxGeometry relative="1" as="geometry">
            <mxPoint x="1225" y="4920" as="sourcePoint" />
            <mxPoint x="525" y="4756" as="targetPoint" />
          </mxGeometry>
        </mxCell>
        <mxCell id="SkI0lWn-ay7iLgk8auJr-124" style="rounded=0;orthogonalLoop=1;jettySize=auto;html=1;exitX=0.5;exitY=0;exitDx=0;exitDy=0;startArrow=none;startFill=0;strokeWidth=1;endArrow=none;endFill=0;strokeColor=#FF8000;entryX=0.5;entryY=1;entryDx=0;entryDy=0;entryPerimeter=0;exitPerimeter=0;" parent="1" source="SkI0lWn-ay7iLgk8auJr-63" target="SkI0lWn-ay7iLgk8auJr-86" edge="1">
          <mxGeometry relative="1" as="geometry">
            <mxPoint x="1235" y="4930" as="sourcePoint" />
            <mxPoint x="535" y="4766" as="targetPoint" />
          </mxGeometry>
        </mxCell>
        <mxCell id="SkI0lWn-ay7iLgk8auJr-125" style="rounded=0;orthogonalLoop=1;jettySize=auto;html=1;exitX=0.5;exitY=0;exitDx=0;exitDy=0;startArrow=none;startFill=0;strokeWidth=1;endArrow=none;endFill=0;strokeColor=#FF8000;entryX=0.5;entryY=1;entryDx=0;entryDy=0;entryPerimeter=0;exitPerimeter=0;" parent="1" source="SkI0lWn-ay7iLgk8auJr-64" target="SkI0lWn-ay7iLgk8auJr-86" edge="1">
          <mxGeometry relative="1" as="geometry">
            <mxPoint x="1245" y="4940" as="sourcePoint" />
            <mxPoint x="545" y="4776" as="targetPoint" />
          </mxGeometry>
        </mxCell>
        <mxCell id="SkI0lWn-ay7iLgk8auJr-126" style="rounded=0;orthogonalLoop=1;jettySize=auto;html=1;exitX=0.5;exitY=0;exitDx=0;exitDy=0;startArrow=none;startFill=0;strokeWidth=1;endArrow=none;endFill=0;strokeColor=#FF8000;entryX=0.5;entryY=1;entryDx=0;entryDy=0;entryPerimeter=0;exitPerimeter=0;" parent="1" source="SkI0lWn-ay7iLgk8auJr-65" target="SkI0lWn-ay7iLgk8auJr-86" edge="1">
          <mxGeometry relative="1" as="geometry">
            <mxPoint x="1255" y="4950" as="sourcePoint" />
            <mxPoint x="555" y="4786" as="targetPoint" />
          </mxGeometry>
        </mxCell>
        <mxCell id="SkI0lWn-ay7iLgk8auJr-127" style="rounded=0;orthogonalLoop=1;jettySize=auto;html=1;exitX=0.5;exitY=0;exitDx=0;exitDy=0;startArrow=none;startFill=0;strokeWidth=1;endArrow=none;endFill=0;strokeColor=#FF8000;entryX=0.5;entryY=1;entryDx=0;entryDy=0;entryPerimeter=0;exitPerimeter=0;" parent="1" source="SkI0lWn-ay7iLgk8auJr-66" target="SkI0lWn-ay7iLgk8auJr-86" edge="1">
          <mxGeometry relative="1" as="geometry">
            <mxPoint x="1265" y="4960" as="sourcePoint" />
            <mxPoint x="565" y="4796" as="targetPoint" />
          </mxGeometry>
        </mxCell>
        <mxCell id="SkI0lWn-ay7iLgk8auJr-128" style="rounded=0;orthogonalLoop=1;jettySize=auto;html=1;exitX=0.5;exitY=0;exitDx=0;exitDy=0;startArrow=none;startFill=0;strokeWidth=1;endArrow=none;endFill=0;strokeColor=#FF8000;entryX=0.5;entryY=1;entryDx=0;entryDy=0;entryPerimeter=0;exitPerimeter=0;" parent="1" source="SkI0lWn-ay7iLgk8auJr-67" target="SkI0lWn-ay7iLgk8auJr-86" edge="1">
          <mxGeometry relative="1" as="geometry">
            <mxPoint x="1275" y="4970" as="sourcePoint" />
            <mxPoint x="575" y="4806" as="targetPoint" />
          </mxGeometry>
        </mxCell>
        <mxCell id="SkI0lWn-ay7iLgk8auJr-129" style="rounded=0;orthogonalLoop=1;jettySize=auto;html=1;exitX=0.5;exitY=0;exitDx=0;exitDy=0;startArrow=none;startFill=0;strokeWidth=1;endArrow=none;endFill=0;strokeColor=#FF8000;entryX=0.5;entryY=1;entryDx=0;entryDy=0;entryPerimeter=0;exitPerimeter=0;" parent="1" source="SkI0lWn-ay7iLgk8auJr-68" target="SkI0lWn-ay7iLgk8auJr-86" edge="1">
          <mxGeometry relative="1" as="geometry">
            <mxPoint x="1285" y="4980" as="sourcePoint" />
            <mxPoint x="585" y="4816" as="targetPoint" />
          </mxGeometry>
        </mxCell>
        <mxCell id="SkI0lWn-ay7iLgk8auJr-130" style="rounded=0;orthogonalLoop=1;jettySize=auto;html=1;exitX=0.5;exitY=0;exitDx=0;exitDy=0;startArrow=none;startFill=0;strokeWidth=1;endArrow=none;endFill=0;strokeColor=#FF8000;entryX=0.5;entryY=1;entryDx=0;entryDy=0;entryPerimeter=0;exitPerimeter=0;" parent="1" source="SkI0lWn-ay7iLgk8auJr-69" target="SkI0lWn-ay7iLgk8auJr-86" edge="1">
          <mxGeometry relative="1" as="geometry">
            <mxPoint x="1295" y="4990" as="sourcePoint" />
            <mxPoint x="595" y="4826" as="targetPoint" />
          </mxGeometry>
        </mxCell>
        <mxCell id="SkI0lWn-ay7iLgk8auJr-131" style="rounded=0;orthogonalLoop=1;jettySize=auto;html=1;exitX=0.5;exitY=0;exitDx=0;exitDy=0;startArrow=none;startFill=0;strokeWidth=1;endArrow=none;endFill=0;strokeColor=#FF8000;exitPerimeter=0;entryX=0.5;entryY=1;entryDx=0;entryDy=0;entryPerimeter=0;" parent="1" source="SkI0lWn-ay7iLgk8auJr-63" target="SkI0lWn-ay7iLgk8auJr-87" edge="1">
          <mxGeometry relative="1" as="geometry">
            <mxPoint x="1155" y="4850" as="sourcePoint" />
            <mxPoint x="1495" y="4670" as="targetPoint" />
          </mxGeometry>
        </mxCell>
        <mxCell id="SkI0lWn-ay7iLgk8auJr-132" style="rounded=0;orthogonalLoop=1;jettySize=auto;html=1;exitX=0.5;exitY=0;exitDx=0;exitDy=0;startArrow=none;startFill=0;strokeWidth=1;endArrow=none;endFill=0;strokeColor=#FF8000;exitPerimeter=0;entryX=0.5;entryY=1;entryDx=0;entryDy=0;entryPerimeter=0;" parent="1" source="SkI0lWn-ay7iLgk8auJr-64" target="SkI0lWn-ay7iLgk8auJr-87" edge="1">
          <mxGeometry relative="1" as="geometry">
            <mxPoint x="1215" y="4850" as="sourcePoint" />
            <mxPoint x="1505" y="4686" as="targetPoint" />
          </mxGeometry>
        </mxCell>
        <mxCell id="SkI0lWn-ay7iLgk8auJr-133" style="rounded=0;orthogonalLoop=1;jettySize=auto;html=1;exitX=0.5;exitY=0;exitDx=0;exitDy=0;startArrow=none;startFill=0;strokeWidth=1;endArrow=none;endFill=0;strokeColor=#FF8000;exitPerimeter=0;entryX=0.5;entryY=1;entryDx=0;entryDy=0;entryPerimeter=0;" parent="1" source="SkI0lWn-ay7iLgk8auJr-65" target="SkI0lWn-ay7iLgk8auJr-87" edge="1">
          <mxGeometry relative="1" as="geometry">
            <mxPoint x="1225" y="4860" as="sourcePoint" />
            <mxPoint x="1515" y="4696" as="targetPoint" />
          </mxGeometry>
        </mxCell>
        <mxCell id="SkI0lWn-ay7iLgk8auJr-134" style="rounded=0;orthogonalLoop=1;jettySize=auto;html=1;exitX=0.5;exitY=0;exitDx=0;exitDy=0;startArrow=none;startFill=0;strokeWidth=1;endArrow=none;endFill=0;strokeColor=#FF8000;exitPerimeter=0;entryX=0.5;entryY=1;entryDx=0;entryDy=0;entryPerimeter=0;" parent="1" source="SkI0lWn-ay7iLgk8auJr-66" target="SkI0lWn-ay7iLgk8auJr-87" edge="1">
          <mxGeometry relative="1" as="geometry">
            <mxPoint x="1235" y="4870" as="sourcePoint" />
            <mxPoint x="1525" y="4706" as="targetPoint" />
          </mxGeometry>
        </mxCell>
        <mxCell id="SkI0lWn-ay7iLgk8auJr-135" style="rounded=0;orthogonalLoop=1;jettySize=auto;html=1;exitX=0.5;exitY=0;exitDx=0;exitDy=0;startArrow=none;startFill=0;strokeWidth=1;endArrow=none;endFill=0;strokeColor=#FF8000;exitPerimeter=0;entryX=0.5;entryY=1;entryDx=0;entryDy=0;entryPerimeter=0;" parent="1" source="SkI0lWn-ay7iLgk8auJr-67" target="SkI0lWn-ay7iLgk8auJr-87" edge="1">
          <mxGeometry relative="1" as="geometry">
            <mxPoint x="1245" y="4880" as="sourcePoint" />
            <mxPoint x="1535" y="4716" as="targetPoint" />
          </mxGeometry>
        </mxCell>
        <mxCell id="SkI0lWn-ay7iLgk8auJr-136" style="rounded=0;orthogonalLoop=1;jettySize=auto;html=1;exitX=0.5;exitY=0;exitDx=0;exitDy=0;startArrow=none;startFill=0;strokeWidth=1;endArrow=none;endFill=0;strokeColor=#FF8000;exitPerimeter=0;entryX=0.5;entryY=1;entryDx=0;entryDy=0;entryPerimeter=0;" parent="1" source="SkI0lWn-ay7iLgk8auJr-68" target="SkI0lWn-ay7iLgk8auJr-87" edge="1">
          <mxGeometry relative="1" as="geometry">
            <mxPoint x="1255" y="4890" as="sourcePoint" />
            <mxPoint x="1545" y="4726" as="targetPoint" />
          </mxGeometry>
        </mxCell>
        <mxCell id="SkI0lWn-ay7iLgk8auJr-137" style="rounded=0;orthogonalLoop=1;jettySize=auto;html=1;exitX=0.5;exitY=0;exitDx=0;exitDy=0;startArrow=none;startFill=0;strokeWidth=1;endArrow=none;endFill=0;strokeColor=#FF8000;exitPerimeter=0;entryX=0.5;entryY=1;entryDx=0;entryDy=0;entryPerimeter=0;" parent="1" source="SkI0lWn-ay7iLgk8auJr-69" target="SkI0lWn-ay7iLgk8auJr-87" edge="1">
          <mxGeometry relative="1" as="geometry">
            <mxPoint x="1265" y="4900" as="sourcePoint" />
            <mxPoint x="1555" y="4736" as="targetPoint" />
          </mxGeometry>
        </mxCell>
        <mxCell id="SkI0lWn-ay7iLgk8auJr-979" value="&lt;font style=&quot;font-size: 20px;&quot; color=&quot;#3333ff&quot;&gt;L8&lt;/font&gt;" style="text;strokeColor=none;align=center;fillColor=none;html=1;verticalAlign=middle;whiteSpace=wrap;rounded=0;" parent="1" vertex="1">
          <mxGeometry x="803" y="4880" width="35" height="30" as="geometry" />
        </mxCell>
        <mxCell id="SkI0lWn-ay7iLgk8auJr-982" value="&lt;font color=&quot;#3333ff&quot;&gt;&lt;span style=&quot;font-size: 20px;&quot;&gt;S64&lt;/span&gt;&lt;/font&gt;" style="text;strokeColor=none;align=center;fillColor=none;html=1;verticalAlign=middle;whiteSpace=wrap;rounded=0;" parent="1" vertex="1">
          <mxGeometry x="1527.5" y="4606" width="35" height="30" as="geometry" />
        </mxCell>
        <mxCell id="SkI0lWn-ay7iLgk8auJr-988" value="&lt;font color=&quot;#3333ff&quot;&gt;&lt;span style=&quot;font-size: 20px;&quot;&gt;S1&lt;/span&gt;&lt;/font&gt;" style="text;strokeColor=none;align=center;fillColor=none;html=1;verticalAlign=middle;whiteSpace=wrap;rounded=0;" parent="1" vertex="1">
          <mxGeometry x="470.5" y="4603" width="35" height="30" as="geometry" />
        </mxCell>
        <mxCell id="SkI0lWn-ay7iLgk8auJr-989" value="&lt;font color=&quot;#3333ff&quot;&gt;&lt;span style=&quot;font-size: 20px;&quot;&gt;S2&lt;/span&gt;&lt;/font&gt;" style="text;strokeColor=none;align=center;fillColor=none;html=1;verticalAlign=middle;whiteSpace=wrap;rounded=0;" parent="1" vertex="1">
          <mxGeometry x="738" y="4606" width="35" height="30" as="geometry" />
        </mxCell>
        <mxCell id="SkI0lWn-ay7iLgk8auJr-990" value="&lt;font style=&quot;font-size: 20px;&quot; color=&quot;#3333ff&quot;&gt;L1&lt;/font&gt;" style="text;strokeColor=none;align=center;fillColor=none;html=1;verticalAlign=middle;whiteSpace=wrap;rounded=0;" parent="1" vertex="1">
          <mxGeometry x="333" y="4876" width="35" height="30" as="geometry" />
        </mxCell>
        <mxCell id="SkI0lWn-ay7iLgk8auJr-995" value="&lt;font style=&quot;font-size: 36px;&quot; color=&quot;#3333ff&quot;&gt;Server Group 1&lt;/font&gt;" style="text;strokeColor=none;align=center;fillColor=none;html=1;verticalAlign=middle;whiteSpace=wrap;rounded=0;" parent="1" vertex="1">
          <mxGeometry x="445.5" y="5120" width="265" height="30" as="geometry" />
        </mxCell>
        <mxCell id="SkI0lWn-ay7iLgk8auJr-996" value="&lt;font style=&quot;font-size: 36px;&quot; color=&quot;#3333ff&quot;&gt;Server Group 16&lt;/font&gt;" style="text;strokeColor=none;align=center;fillColor=none;html=1;verticalAlign=middle;whiteSpace=wrap;rounded=0;" parent="1" vertex="1">
          <mxGeometry x="1198" y="5120" width="317" height="30" as="geometry" />
        </mxCell>
        <mxCell id="SkI0lWn-ay7iLgk8auJr-998" value="&lt;font style=&quot;font-size: 20px;&quot; color=&quot;#3333ff&quot;&gt;Server1&lt;/font&gt;" style="text;strokeColor=none;align=center;fillColor=none;html=1;verticalAlign=middle;whiteSpace=wrap;rounded=0;" parent="1" vertex="1">
          <mxGeometry x="350.5" y="5080" width="85" height="30" as="geometry" />
        </mxCell>
        <mxCell id="SkI0lWn-ay7iLgk8auJr-999" value="&lt;font style=&quot;font-size: 20px;&quot; color=&quot;#3333ff&quot;&gt;Server64&lt;/font&gt;" style="text;strokeColor=none;align=center;fillColor=none;html=1;verticalAlign=middle;whiteSpace=wrap;rounded=0;" parent="1" vertex="1">
          <mxGeometry x="732.5" y="5080" width="85" height="30" as="geometry" />
        </mxCell>
        <mxCell id="SkI0lWn-ay7iLgk8auJr-1000" value="&lt;font style=&quot;font-size: 20px;&quot; color=&quot;#3333ff&quot;&gt;Server64&lt;/font&gt;" style="text;strokeColor=none;align=center;fillColor=none;html=1;verticalAlign=middle;whiteSpace=wrap;rounded=0;" parent="1" vertex="1">
          <mxGeometry x="1505" y="5080" width="85" height="30" as="geometry" />
        </mxCell>
        <mxCell id="SkI0lWn-ay7iLgk8auJr-1001" value="&lt;font style=&quot;font-size: 20px;&quot; color=&quot;#3333ff&quot;&gt;Server1&lt;/font&gt;" style="text;strokeColor=none;align=center;fillColor=none;html=1;verticalAlign=middle;whiteSpace=wrap;rounded=0;" parent="1" vertex="1">
          <mxGeometry x="1117.5" y="5080" width="85" height="30" as="geometry" />
        </mxCell>
        <mxCell id="SkI0lWn-ay7iLgk8auJr-1002" value="&lt;font style=&quot;font-size: 20px;&quot; color=&quot;#3333ff&quot;&gt;L1&lt;/font&gt;" style="text;strokeColor=none;align=center;fillColor=none;html=1;verticalAlign=middle;whiteSpace=wrap;rounded=0;" parent="1" vertex="1">
          <mxGeometry x="1095.5" y="4880" width="35" height="30" as="geometry" />
        </mxCell>
        <mxCell id="SkI0lWn-ay7iLgk8auJr-1003" value="&lt;font style=&quot;font-size: 20px;&quot; color=&quot;#3333ff&quot;&gt;L8&lt;/font&gt;" style="text;strokeColor=none;align=center;fillColor=none;html=1;verticalAlign=middle;whiteSpace=wrap;rounded=0;" parent="1" vertex="1">
          <mxGeometry x="1573" y="4876" width="35" height="30" as="geometry" />
        </mxCell>
        <mxCell id="SkI0lWn-ay7iLgk8auJr-1004" value="&lt;font style=&quot;font-size: 38px;&quot; color=&quot;#3333ff&quot;&gt;Leaf&lt;/font&gt;" style="text;strokeColor=none;align=center;fillColor=none;html=1;verticalAlign=middle;whiteSpace=wrap;rounded=0;" parent="1" vertex="1">
          <mxGeometry x="205" y="4843" width="85" height="30" as="geometry" />
        </mxCell>
        <mxCell id="SkI0lWn-ay7iLgk8auJr-1005" value="&lt;font style=&quot;font-size: 38px;&quot; color=&quot;#3333ff&quot;&gt;Spine&lt;/font&gt;" style="text;strokeColor=none;align=center;fillColor=none;html=1;verticalAlign=middle;whiteSpace=wrap;rounded=0;" parent="1" vertex="1">
          <mxGeometry x="210" y="4600" width="85" height="30" as="geometry" />
        </mxCell>
      </root>
    </mxGraphModel>
  </diagram>
</mxfile>
